<svg width="20" height="20" viewBox="0 0 20 20" fill="none" xmlns="http://www.w3.org/2000/svg">
<circle cx="10" cy="10" r="10" fill="#DDEAF6"/>
<path fill-rule="evenodd" clip-rule="evenodd" d="M9.39281 5.53875C9.35663 5.43817 9.30641 5.3293 9.24004 5.22914C9.12478 5.05519 8.92429 4.85693 8.62423 4.85693C7.95283 4.85693 7.40856 5.40121 7.40856 6.07261V13.5917C7.39937 13.7877 7.42808 14.0818 7.55675 14.3391C7.69468 14.6149 7.95644 14.8569 8.38097 14.8569H11.4517L11.4641 14.8557C11.6764 14.835 11.9907 14.7534 12.2597 14.5669C12.5376 14.3743 12.7765 14.0603 12.7765 13.5982V6.13347C12.7875 6.0374 12.7768 5.902 12.699 5.77844C12.6024 5.62496 12.4338 5.53875 12.2211 5.53875H9.39281ZM12.0002 8.6856C12.0002 8.73241 11.9985 8.77883 11.9953 8.82479C11.9246 9.82191 11.1002 10.6087 10.0936 10.6087C9.07546 10.6087 8.24374 9.8038 8.18974 8.79049C8.18789 8.75577 8.18695 8.7208 8.18695 8.6856C8.18695 8.65041 8.18789 8.61544 8.18974 8.58072C8.24374 7.56741 9.07546 6.76253 10.0936 6.76253C11.1002 6.76253 11.9246 7.5493 11.9953 8.54642C11.9985 8.59238 12.0002 8.6388 12.0002 8.6856ZM9.52159 11.4478C9.35885 11.4478 9.22693 11.5809 9.22693 11.745C9.22693 11.9092 9.35885 12.0422 9.52159 12.0422H10.5616C10.7243 12.0422 10.8562 11.9092 10.8562 11.745C10.8562 11.5809 10.7243 11.4478 10.5616 11.4478H9.52159ZM11.9309 11.6402C11.9309 11.8622 11.7524 12.0422 11.5322 12.0422C11.312 12.0422 11.1335 11.8622 11.1335 11.6402C11.1335 11.4181 11.312 11.2381 11.5322 11.2381C11.7524 11.2381 11.9309 11.4181 11.9309 11.6402ZM11.4038 14.1336C11.3451 14.1235 11.2902 14.1019 11.2416 14.0713C11.1142 13.9909 11.0295 13.8482 11.0295 13.6856C11.0295 13.4346 11.2313 13.2311 11.4802 13.2311C11.7291 13.2311 11.9309 13.4346 11.9309 13.6856C11.9309 13.7431 11.9203 13.7981 11.901 13.8488C11.8861 13.8876 11.8662 13.9239 11.8419 13.9568C11.7597 14.0681 11.6283 14.1402 11.4802 14.1402C11.4618 14.1402 11.4437 14.139 11.4258 14.1369C11.4184 14.136 11.4111 14.1349 11.4038 14.1336Z" fill="#0085FF"/>
</svg>
