<svg width="20" height="20" viewBox="0 0 20 20" fill="none" xmlns="http://www.w3.org/2000/svg">
<circle cx="10" cy="10" r="10" fill="#DDEAF6"/>
<g clip-path="url(#clip0_243_4026)">
<path d="M10.4023 11.7819C10.4009 11.7839 10.3987 11.7883 10.3956 11.7946C10.3653 11.8555 10.1916 12.0075 9.91443 12.1327C9.73453 12.2227 9.51342 12.189 9.29871 12.0614H8.60011C8.59693 12.0797 8.59451 12.11 8.59833 12.1558C8.62771 12.5084 8.80429 13.6924 8.90137 14.3204C8.93308 14.3439 9.00829 14.3859 9.15559 14.3859H12.5211L12.5294 14.3863C12.5285 14.3863 12.5281 14.3862 12.5282 14.3861L12.5283 14.3861C12.5285 14.386 12.529 14.3859 12.5296 14.3857C12.533 14.3848 12.5417 14.3825 12.5499 14.3757C12.5542 14.3721 12.5622 14.3642 12.5704 14.3463C12.579 14.3276 12.5901 14.2928 12.5926 14.2338C12.6088 13.8622 12.7296 12.7189 12.7897 12.1754C12.7881 12.1611 12.7854 12.1439 12.781 12.1257C12.7748 12.0994 12.7667 12.0773 12.7587 12.0614H12.0928C11.8781 12.189 11.6569 12.2227 11.4771 12.1327C11.4251 12.1067 11.3793 12.0718 11.3398 12.0292C11.3352 12.0245 11.3223 12.0177 11.3031 12.0075C11.2364 11.9721 11.0933 11.8961 10.9554 11.7264L10.9528 11.7219C10.9418 11.703 10.9324 11.687 10.9225 11.6713C10.9029 11.6403 10.8856 11.6176 10.868 11.6002C10.842 11.5744 10.8022 11.5448 10.7051 11.5448C10.5601 11.5448 10.5065 11.6253 10.4023 11.7819Z" fill="#0085FF"/>
<path d="M9.68201 10.8748C9.80651 11.1237 9.84822 11.3633 9.83318 11.539C9.81747 11.7225 9.75206 11.7697 9.73672 11.7773C9.72138 11.785 9.6444 11.809 9.48817 11.7115C9.33864 11.6182 9.17198 11.4411 9.04748 11.1921C8.92299 10.9432 8.88127 10.7036 8.89631 10.5279C8.91203 10.3444 8.97744 10.2973 8.99277 10.2896C9.00811 10.2819 9.08509 10.2579 9.24133 10.3554C9.39086 10.4487 9.55751 10.6258 9.68201 10.8748Z" fill="#0085FF"/>
<path d="M11.7095 10.8748C11.585 11.1237 11.5433 11.3633 11.5583 11.539C11.574 11.7225 11.6394 11.7697 11.6548 11.7773C11.6701 11.785 11.7471 11.809 11.9033 11.7115C12.0528 11.6182 12.2195 11.4411 12.344 11.1921C12.4685 10.9432 12.5102 10.7036 12.4952 10.5279C12.4795 10.3444 12.414 10.2973 12.3987 10.2896C12.3834 10.2819 12.3064 10.2579 12.1502 10.3554C12.0006 10.4487 11.834 10.6258 11.7095 10.8748Z" fill="#0085FF"/>
<path fill-rule="evenodd" clip-rule="evenodd" d="M7.61718 15.5065C7.9386 15.7669 8.34922 15.863 8.76288 15.863H8.88403H9.71737H10.4882H11.0299H11.8123H12.4768H13.1965C13.1991 15.8567 13.1988 15.8634 13.2012 15.8572C13.4944 15.8076 13.7098 15.6635 13.8523 15.4737C14.0116 15.2613 14.0626 15.0153 14.0626 14.8385L14.3185 12.6452C14.6011 12.518 14.9544 12.3255 15.2483 12.0904C15.4254 11.9488 15.5949 11.7806 15.7108 11.5893C15.8283 11.3952 15.9006 11.159 15.843 10.9032C15.8103 10.7578 15.7274 10.6292 15.6376 10.522C15.5452 10.4118 15.4278 10.3039 15.2982 10.2001C15.0388 9.99258 14.7034 9.78112 14.3486 9.58144C13.7042 9.21882 12.9661 8.87876 12.4285 8.65319C12.3375 7.98493 12.1692 7.06408 11.9314 6.28027C11.8025 5.85554 11.648 5.45344 11.4649 5.15152C11.296 4.87298 11.0367 4.57129 10.6654 4.57129C10.2946 4.57129 10.0344 4.87226 9.86424 5.1506C9.67973 5.45232 9.52331 5.85427 9.39232 6.27898C9.14937 7.06668 8.976 7.99284 8.88202 8.66189C8.29499 8.93916 7.4858 9.34103 6.80008 9.72461C6.4286 9.93241 6.08568 10.1391 5.83268 10.3204C5.7072 10.4104 5.59422 10.5009 5.50955 10.5879C5.46728 10.6314 5.42491 10.6812 5.39152 10.7362C5.36005 10.7881 5.32153 10.869 5.32153 10.9686C5.32153 11.0808 5.35976 11.1815 5.40019 11.2597C5.44209 11.3408 5.49789 11.4197 5.55813 11.4935C5.67856 11.6411 5.83827 11.7946 6.00549 11.9394C6.29794 12.1928 6.63821 12.441 6.89666 12.6156C6.95136 12.9418 7.02381 13.3896 7.08536 13.8038C7.1573 14.288 7.20876 14.6916 7.20876 14.8229C7.20876 14.9856 7.27589 15.1246 7.35007 15.2299C7.42513 15.3364 7.52189 15.4293 7.61718 15.5065ZM13.1681 15.9346L12.4465 15.9451C12.3868 15.9702 12.382 16.0921 12.1553 16.0921C11.9285 16.0921 11.9092 15.9706 11.8424 15.9451L11.0755 15.9346C11.2477 16.2305 11.5886 16.5713 12.1553 16.5713C12.5329 16.5713 12.8076 16.414 12.988 16.2098C13.0654 16.1222 13.1244 16.0274 13.1681 15.9346ZM8.37261 16.2143C8.28309 16.117 8.2204 16.014 8.17408 15.9346H9.00293C9.07471 15.9591 9.0507 16.0921 9.29465 16.0921C9.56127 16.0921 9.51498 15.9593 9.58956 15.9346H10.4435L10.4367 15.9451C10.386 16.0243 10.3185 16.1255 10.2254 16.2208C10.0242 16.4268 9.73702 16.5713 9.29465 16.5713C8.85225 16.5713 8.56778 16.4264 8.37261 16.2143ZM10.0374 10.697C9.73378 10.0899 9.18654 9.74841 8.81506 9.9342C8.44359 10.12 8.38855 10.7628 8.69213 11.3699C8.70843 11.4025 8.72544 11.4343 8.74308 11.4653H8.63872C8.51813 11.4521 8.35006 11.4742 8.20908 11.5958C8.0451 11.7372 7.98355 11.9549 8.00442 12.2053C8.03732 12.6001 8.23297 13.901 8.32478 14.4913L8.33192 14.5372L8.3527 14.5787C8.45038 14.7741 8.72672 14.9819 9.15559 14.9819H12.5063C12.6297 14.9864 12.7918 14.9496 12.9308 14.8341C13.083 14.7076 13.177 14.5124 13.188 14.2597C13.2034 13.9068 13.325 12.755 13.3851 12.2135L13.3878 12.19L13.3866 12.1664C13.3819 12.0675 13.3565 11.9172 13.2845 11.7807C13.2101 11.6397 13.0547 11.4653 12.791 11.4653H12.6484C12.666 11.4343 12.683 11.4025 12.6994 11.3699C13.0029 10.7628 12.9479 10.12 12.5764 9.9342C12.2049 9.74841 11.6577 10.0899 11.3541 10.697C11.2862 10.833 11.2362 10.9706 11.2037 11.1046C11.0786 11.0114 10.9152 10.9488 10.7051 10.9488C10.4869 10.9488 10.3188 11.0241 10.1916 11.1205C10.1592 10.9816 10.108 10.8383 10.0374 10.697ZM9.68201 10.8748C9.80651 11.1237 9.84822 11.3633 9.83318 11.539C9.81747 11.7225 9.75206 11.7697 9.73672 11.7773C9.72138 11.785 9.6444 11.809 9.48817 11.7115C9.33864 11.6182 9.17198 11.4411 9.04748 11.1921C8.92299 10.9432 8.88127 10.7036 8.89631 10.5279C8.91203 10.3444 8.97744 10.2973 8.99277 10.2896C9.00811 10.2819 9.08509 10.2579 9.24133 10.3554C9.39086 10.4487 9.55751 10.6258 9.68201 10.8748ZM11.7095 10.8748C11.585 11.1237 11.5433 11.3633 11.5583 11.539C11.574 11.7225 11.6394 11.7697 11.6548 11.7773C11.6701 11.785 11.7471 11.809 11.9033 11.7115C12.0528 11.6182 12.2195 11.4411 12.344 11.1921C12.4685 10.9432 12.5102 10.7036 12.4952 10.5279C12.4795 10.3444 12.414 10.2973 12.3987 10.2896C12.3834 10.2819 12.3064 10.2579 12.1502 10.3554C12.0006 10.4487 11.834 10.6258 11.7095 10.8748ZM10.9528 11.7219L10.9554 11.7264C11.0933 11.8961 11.2364 11.9721 11.3031 12.0075C11.3223 12.0177 11.3352 12.0245 11.3398 12.0292C11.3793 12.0718 11.4251 12.1067 11.4771 12.1327C11.6569 12.2227 11.8781 12.189 12.0928 12.0614H12.7587C12.7667 12.0773 12.7748 12.0994 12.781 12.1257C12.7854 12.1439 12.7881 12.1611 12.7897 12.1754C12.7296 12.7189 12.6088 13.8622 12.5926 14.2338C12.5901 14.2928 12.579 14.3276 12.5704 14.3463C12.5622 14.3642 12.5542 14.3721 12.5499 14.3757C12.5417 14.3825 12.533 14.3848 12.5296 14.3857C12.529 14.3859 12.5285 14.386 12.5283 14.3861L12.5282 14.3861C12.5281 14.3862 12.5285 14.3863 12.5294 14.3863L12.5211 14.3859H9.15559C9.00829 14.3859 8.93308 14.3439 8.90137 14.3204C8.80429 13.6924 8.62771 12.5084 8.59833 12.1558C8.59451 12.11 8.59693 12.0797 8.60011 12.0614H9.29871C9.51342 12.189 9.73453 12.2227 9.91443 12.1327C10.1916 12.0075 10.3653 11.8555 10.3956 11.7946C10.3987 11.7883 10.4009 11.7839 10.4023 11.7819C10.5065 11.6253 10.5601 11.5448 10.7051 11.5448C10.8022 11.5448 10.842 11.5744 10.868 11.6002C10.8856 11.6176 10.9029 11.6403 10.9225 11.6713C10.9324 11.687 10.9418 11.703 10.9528 11.7219Z" fill="#0085FF"/>
</g>
<defs>
<clipPath id="clip0_243_4026">
<rect width="12" height="12" fill="white" transform="translate(4.57153 4.57129)"/>
</clipPath>
</defs>
</svg>
