<svg width="20" height="20" viewBox="0 0 20 20" fill="none" xmlns="http://www.w3.org/2000/svg">
<circle cx="10" cy="10" r="10" fill="#DDEAF6"/>
<g clip-path="url(#clip0_243_4007)">
<path fill-rule="evenodd" clip-rule="evenodd" d="M10.8511 15.2122C10.977 14.9259 11.0129 14.8757 11.0526 14.6551H9.29609C9.33307 14.877 9.33202 14.9112 9.43878 15.1963C9.4922 15.339 9.56394 15.4895 9.66179 15.6098C9.75883 15.729 9.91499 15.8569 10.133 15.8569C10.3472 15.8569 10.505 15.7328 10.6055 15.6186C10.7083 15.5017 10.7886 15.3541 10.8511 15.2122Z" fill="#0085FF"/>
<path fill-rule="evenodd" clip-rule="evenodd" d="M7.74292 6.40951C7.74292 6.23053 7.88801 6.08544 8.06699 6.08544H9.32277H11.2214H12.1989C12.3779 6.08544 12.523 6.23053 12.523 6.40951V14.1062C12.523 14.2852 12.3779 14.4303 12.1989 14.4303H11.1064H9.24208H8.06699C7.88801 14.4303 7.74292 14.2852 7.74292 14.1062V6.40951ZM11.2809 7.10111C11.0927 7.4331 10.7381 7.66529 10.1937 7.66529C9.66564 7.66529 9.30911 7.46713 9.10952 7.16396C9.00911 7.01144 8.95789 6.84646 8.93759 6.69308H9.55619H10.7992H11.423C11.4001 6.82827 11.3559 6.96873 11.2809 7.10111Z" fill="#0085FF"/>
<path d="M9.6474 4.26349C9.54999 4.03945 9.4625 3.85255 9.26517 3.85701C9.03926 3.86218 8.8893 3.98636 8.83151 4.10757C8.79795 4.17794 8.7759 4.36144 8.7759 4.41164V5.33601C8.7759 5.48406 8.7922 5.55802 8.83151 5.63198C8.87081 5.70594 9.01846 5.83537 9.12968 5.83537C9.49948 5.83537 9.38854 5.70594 9.62891 5.70594C9.8323 5.70594 9.92475 5.95741 9.92475 5.95741H11.215C11.1768 5.3236 11.0469 4.92518 10.8579 4.67801C10.7389 4.5225 10.6011 4.43297 10.4656 4.38674C10.3388 4.34344 10.2276 4.34351 10.1773 4.34354L10.1735 4.34355C10.0545 4.34355 9.95146 4.38399 9.87212 4.42964C9.8323 4.45256 9.75834 4.51865 9.6474 4.26349Z" fill="#0085FF"/>
</g>
<defs>
<clipPath id="clip0_243_4007">
<rect width="12" height="12" fill="white" transform="translate(4.14282 3.85693)"/>
</clipPath>
</defs>
</svg>
