<svg width="20" height="20" viewBox="0 0 20 20" fill="none" xmlns="http://www.w3.org/2000/svg">
<circle cx="10" cy="10" r="10" fill="#DDEAF6"/>
<g clip-path="url(#clip0_620_4666)">
<path fill-rule="evenodd" clip-rule="evenodd" d="M7.45005 12.25V7.3H14.5V12.25H7.45005ZM7.88503 7.66589C7.92812 7.60039 8.00396 7.55 8.10274 7.55H8.91116C8.91116 7.55 8.91116 7.67069 8.96029 7.67069C9.00943 7.67069 9.00886 7.55 9.00886 7.55H13.3284C13.3284 7.55 13.3277 7.69483 13.389 7.69483C13.4491 7.69483 13.437 7.55 13.437 7.55H13.8387L13.8535 7.55232C13.9023 7.55994 13.9682 7.58142 14.0282 7.62527C14.0919 7.67187 14.1573 7.75135 14.1686 7.86773C14.1722 7.9046 14.174 7.93888 14.1745 7.96981C14.3116 8.07187 14.475 8.26031 14.475 8.53649C14.475 8.71598 14.4038 8.86875 14.3259 8.98085C14.2767 9.05162 14.2212 9.11152 14.1695 9.15799V9.21466L14.1665 9.23142C14.1574 9.28271 14.1319 9.34988 14.0808 9.40796C14.0247 9.47156 13.9378 9.52297 13.8237 9.52297H11.9767C11.9767 9.52297 11.981 9.43276 11.9405 9.43276C11.8922 9.43276 11.8956 9.52297 11.8956 9.52297H11.4373C11.4373 9.52297 11.4373 9.43276 11.387 9.43276C11.3367 9.43276 11.3439 9.52297 11.3439 9.52297H8.53739C8.49887 9.52297 8.46177 9.5177 8.42574 9.50483L8.41986 9.50265L8.34185 9.51891C8.28514 9.53073 8.19787 9.53684 8.11001 9.51285C8.01622 9.48723 7.90305 9.41968 7.85927 9.27594L7.85343 9.25675L7.84909 9.20789C7.8099 9.18299 7.76353 9.14906 7.71693 9.10465C7.5972 8.99054 7.47495 8.80506 7.47495 8.53649C7.47495 8.28256 7.60423 8.10735 7.72157 8.00262C7.76272 7.96589 7.80353 7.93664 7.83915 7.91411V7.82024C7.83915 7.77979 7.84878 7.72099 7.88503 7.66589Z" fill="#0085FF"/>
<path fill-rule="evenodd" clip-rule="evenodd" d="M14.8329 6.90554C14.8522 6.93667 14.8926 7.00711 14.9 7.03976C14.9151 7.09401 14.9205 7.15377 14.9205 7.22036V7.50839C14.9205 7.50646 14.9193 7.53682 14.9246 7.57404C14.9299 7.61092 14.9422 7.66159 14.9717 7.7136C14.9792 7.7269 14.9875 7.73973 14.9967 7.75203C15.0239 7.78872 15.0582 7.82065 15.0998 7.84615C15.1394 7.87051 15.1856 7.889 15.2384 7.90014C15.2758 7.90803 15.3165 7.91224 15.3605 7.91224C15.4608 7.91224 15.5367 7.87373 15.5901 7.82134C15.5934 7.81808 15.5966 7.81477 15.5998 7.81141C15.6196 7.79022 15.636 7.76714 15.649 7.74364C15.6913 7.66727 15.7 7.58705 15.7 7.5444V6.47628C15.7 6.33755 15.6554 6.21056 15.5556 6.12027C15.4586 6.03255 15.3326 6.00042 15.2096 6.00042H14.1526L14.147 6.00031C14.1215 5.99971 14.0297 5.99753 13.944 6.02368C13.8942 6.03888 13.8321 6.06732 13.7817 6.123C13.779 6.12596 13.7763 6.12897 13.7738 6.13202C13.7689 6.13789 13.7642 6.14392 13.7597 6.1501C13.7203 6.2049 13.7 6.27131 13.7 6.34427C13.7 6.39728 13.7102 6.44354 13.727 6.48367C13.7589 6.55978 13.8146 6.61385 13.8697 6.6501C13.8865 6.66117 13.9033 6.67059 13.9193 6.67846C13.9392 6.68825 13.9594 6.69651 13.9792 6.70345C14.0503 6.72834 14.1171 6.73611 14.1526 6.73611H14.4797C14.5675 6.73611 14.7046 6.77573 14.7975 6.86625C14.8105 6.87899 14.8223 6.89207 14.8329 6.90554ZM14.9 12.4728C14.8749 12.5219 14.8181 12.626 14.7919 12.65C14.7285 12.7142 14.657 12.7482 14.5735 12.7643C14.5274 12.7731 14.4776 12.7765 14.4236 12.7765H14.1223C14.1244 12.7765 14.0926 12.7753 14.0537 12.7809C14.0151 12.7864 13.9621 12.7992 13.9077 12.8301C13.8568 12.8589 13.8125 12.8989 13.7781 12.9501C13.7291 13.0229 13.7 13.1183 13.7 13.2368C13.7 13.3259 13.729 13.3966 13.7714 13.4501C13.8015 13.4882 13.8384 13.5175 13.8763 13.5385C13.9562 13.5827 14.0401 13.5918 14.0847 13.5918H15.2018C15.3469 13.5918 15.4797 13.5452 15.5742 13.4408C15.6659 13.3394 15.6995 13.2076 15.6995 13.0789V11.9734L15.6996 11.9676C15.7003 11.9409 15.7025 11.8449 15.6752 11.7552C15.666 11.7251 15.6521 11.6907 15.6308 11.6568C15.6219 11.6425 15.6116 11.6283 15.5998 11.6146C15.5911 11.6046 15.5817 11.5948 15.5713 11.5855C15.5092 11.5292 15.4292 11.5 15.3399 11.5C15.3126 11.5 15.287 11.5026 15.263 11.5073C15.1966 11.5204 15.1427 11.55 15.0998 11.5865C15.0617 11.6189 15.0322 11.6566 15.0102 11.6931C15.0028 11.7054 14.9962 11.7176 14.9904 11.7294C14.9434 11.825 14.9301 11.9259 14.9301 11.9734V12.3156C14.9301 12.3597 14.9205 12.4157 14.9 12.4728Z" fill="#0085FF"/>
<path d="M8.22536 7.93621V8.16115L8.10393 8.20892L8.09797 8.21159C8.09189 8.21442 8.08203 8.21925 8.06966 8.22617C8.04454 8.24023 8.01131 8.26168 7.97874 8.29075C7.91398 8.34855 7.86116 8.42678 7.86116 8.53649C7.86116 8.67562 7.921 8.76563 7.98338 8.82507C8.01553 8.85571 8.04805 8.87763 8.07222 8.89165C8.08414 8.89856 8.09356 8.90328 8.09921 8.90596L8.10438 8.90832L8.21403 8.95144L8.22905 9.12044C8.23791 9.11619 8.24606 9.11297 8.25303 9.11052C8.29756 9.09485 8.34606 9.09269 8.38467 9.09269C8.42316 9.09269 8.46022 9.09779 8.49621 9.11034C8.52025 9.11872 8.53974 9.12919 8.55247 9.13677H11.1707C11.1762 9.13199 11.182 9.12726 11.1879 9.12264C11.2168 9.10004 11.2877 9.04861 11.3802 9.04861C11.469 9.04861 11.5408 9.09675 11.5697 9.11717C11.5787 9.12354 11.5874 9.13013 11.5957 9.13677H11.6917C11.6976 9.13162 11.7038 9.12658 11.7101 9.12169C11.7547 9.0874 11.8187 9.05454 11.8986 9.04933C11.9058 9.04886 11.9132 9.04861 11.9206 9.04861C12.0109 9.04861 12.0825 9.0843 12.1311 9.12169L12.1335 9.12353L12.1356 9.12515C12.1404 9.12895 12.145 9.13283 12.1495 9.13677H13.7833V8.96366L13.8672 8.90613C13.8999 8.88378 13.9591 8.83179 14.0087 8.76044C14.0581 8.68944 14.0887 8.61264 14.0887 8.53649C14.0887 8.46309 14.0602 8.40116 14.0179 8.3494C13.9736 8.29536 13.9209 8.26092 13.8944 8.24851L13.7604 8.18565C13.7604 8.18565 13.7867 8.07574 13.7884 8.00398C13.789 7.97751 13.7885 7.9631 13.7867 7.93621L13.636 7.93631C13.5999 7.993 13.5208 8.07946 13.389 8.07946C13.2573 8.07946 13.1782 7.9929 13.1421 7.93621H9.22798C9.21897 7.94762 9.20937 7.95898 9.19925 7.97002C9.17766 7.99357 9.149 8.02079 9.1138 8.04326C9.10249 8.05048 9.08912 8.05809 9.07389 8.06505C9.04307 8.07911 9.00466 8.09048 8.96029 8.09048C8.82958 8.09048 8.74868 7.99552 8.71908 7.95681C8.71389 7.95002 8.70891 7.94314 8.70415 7.93621H8.22536Z" fill="#0085FF"/>
<path fill-rule="evenodd" clip-rule="evenodd" d="M12.1495 9.13677C12.145 9.13283 12.1404 9.12895 12.1356 9.12515L12.1335 9.12353L12.1311 9.12169C12.0825 9.0843 12.0109 9.04861 11.9206 9.04861C11.9132 9.04861 11.9058 9.04886 11.8986 9.04933L12.1495 9.13677Z" fill="#0085FF"/>
<path fill-rule="evenodd" clip-rule="evenodd" d="M14.9 7.96981V11.5C14.9136 11.3917 15.0167 11.163 15.3204 11.163C15.5115 11.163 15.5863 11.2559 15.5998 11.2963V8.07946C15.5998 8.07946 15.4426 8.30351 15.2384 8.27405C14.9631 8.23434 14.9 7.96981 14.9 7.96981Z" fill="#0085FF"/>
<path d="M5.68793 8.51036C5.72309 8.4644 5.7755 8.42823 5.84856 8.42823C5.9365 8.42823 5.99729 8.48001 6.03503 8.53788C6.0367 8.4979 6.03704 8.45867 6.0358 8.42081C6.03191 8.30172 6.01259 8.20748 5.97888 8.14615C5.94888 8.09156 5.91008 8.06532 5.84856 8.06532C5.8147 8.06532 5.79195 8.07352 5.7753 8.0847C5.75807 8.09627 5.74149 8.11503 5.72697 8.14471C5.69657 8.20683 5.6819 8.30299 5.68403 8.42503C5.68451 8.45283 5.68585 8.48135 5.68793 8.51036Z" fill="#0085FF"/>
<path d="M5.68793 11.0424C5.72309 11.0884 5.7755 11.1246 5.84856 11.1246C5.9365 11.1246 5.99729 11.0728 6.03503 11.0149C6.0367 11.0549 6.03704 11.0941 6.0358 11.132C6.03191 11.2511 6.01259 11.3453 5.97888 11.4066C5.94888 11.4612 5.91008 11.4875 5.84856 11.4875C5.8147 11.4875 5.79195 11.4793 5.7753 11.4681C5.75807 11.4565 5.74149 11.4377 5.72697 11.4081C5.69657 11.3459 5.6819 11.2498 5.68403 11.1278C5.68451 11.1 5.68585 11.0714 5.68793 11.0424Z" fill="#0085FF"/>
<path fill-rule="evenodd" clip-rule="evenodd" d="M4.49976 9.50882V9.86829L4.59051 10.0137L5.09995 9.7793V9.66797L4.65537 9.40234L4.49976 9.50882Z" fill="#0085FF"/>
<path fill-rule="evenodd" clip-rule="evenodd" d="M4.49976 6.6501C4.49976 6.37396 4.72361 6.1501 4.99976 6.1501H13.437C13.437 6.1501 13.3284 6.22441 13.3284 6.48367C13.3284 6.79589 13.727 6.9 13.727 6.9H7.15005C7.09482 6.9 7.05005 6.94477 7.05005 7V12.55C7.05005 12.6052 7.09482 12.65 7.15005 12.65H13.8301C13.8183 12.6553 13.804 12.6612 13.7877 12.6677C13.6763 12.7128 13.4772 12.7933 13.45 13C13.4182 13.2406 13.4681 13.3468 13.5025 13.4201C13.5075 13.4307 13.5122 13.4406 13.5162 13.4501H13.3971H4.99976C4.72361 13.4501 4.49976 13.2262 4.49976 12.9501V11.2624C4.66615 11.15 4.83753 10.9616 4.90242 10.8815C4.85159 11.0196 4.81995 11.4162 5.09995 11.8979V12.5501C5.09995 12.6053 5.14472 12.6501 5.19995 12.6501H6.72495C6.78018 12.6501 6.82495 12.6053 6.82495 12.5501V7.0001C6.82495 6.94487 6.78018 6.9001 6.72495 6.9001H5.19995C5.14472 6.9001 5.09995 6.94487 5.09995 7.0001V7.61298C4.9252 7.7363 4.82503 8.14471 4.86614 8.35481C4.85047 8.31284 4.59637 8.18591 4.49976 8.18591V6.6501Z" fill="#0085FF"/>
<path fill-rule="evenodd" clip-rule="evenodd" d="M4.20681 10.1167C4.21289 10.1136 4.21904 10.1106 4.22521 10.1078C4.2754 10.0846 4.34481 10.0609 4.42467 10.065C4.43317 10.0654 4.4416 10.0661 4.44995 10.0671C4.46697 10.0691 4.48363 10.0722 4.49976 10.0761C4.53287 10.084 4.56369 10.0953 4.59051 10.1074L4.99976 9.91532L5.09995 9.86829L5.23431 9.80524V9.64387L5.09995 9.56651L4.99976 9.50882L4.65537 9.31053C4.60773 9.32502 4.55436 9.33671 4.49976 9.34448C4.48526 9.34654 4.47067 9.34833 4.45608 9.34982L4.44995 9.35043C4.37803 9.35737 4.29718 9.35797 4.22028 9.34435C4.19995 9.35898 4.17692 9.37493 4.15523 9.38813C4.13097 9.4029 4.10012 9.41965 4.0666 9.43066C4.03623 9.44064 3.98121 9.45351 3.92227 9.43142C3.85788 9.4073 3.82538 9.35267 3.81137 9.32555C3.79397 9.29187 3.78164 9.2534 3.77264 9.21598C3.75441 9.14014 3.74463 9.04634 3.74463 8.94995C3.74463 8.8532 3.75448 8.74784 3.77888 8.64924C3.80282 8.55248 3.84355 8.4509 3.91319 8.37261L3.9192 8.36586L3.92601 8.35991L3.93168 8.35481C3.94517 8.3426 3.97393 8.31656 4.0052 8.29577C4.0439 8.27004 4.10308 8.24002 4.17741 8.24024C4.29567 8.24037 4.37721 8.31687 4.41625 8.36145C4.42612 8.37273 4.43495 8.38386 4.44269 8.39434C4.45964 8.3975 4.47888 8.4017 4.49976 8.40728C4.52284 8.41345 4.54792 8.42131 4.5741 8.43134C4.67558 8.47021 4.80202 8.54523 4.88509 8.68729L4.98176 8.74119L4.99976 8.75123L5.07842 8.7951C5.05157 8.64589 5.03007 8.46803 5.03007 8.28826C5.03007 8.17301 5.04614 8.06123 5.07898 7.9578C5.08534 7.93777 5.09233 7.91806 5.09995 7.89869C5.13368 7.81297 5.17982 7.73408 5.2388 7.66507C5.27099 7.6274 5.30651 7.59329 5.34511 7.56303C5.39225 7.5261 5.444 7.49491 5.49995 7.47002C5.60239 7.42446 5.71891 7.4 5.84699 7.4C6.08452 7.4 6.2808 7.4917 6.42495 7.63207L6.43382 7.64084C6.60489 7.81236 6.69995 8.05325 6.69995 8.28826C6.69995 8.6817 6.62315 8.93996 6.54548 9.13398C6.51767 9.20345 6.47626 9.28541 6.43382 9.36294L6.42495 9.37905C6.39719 9.42921 6.36936 9.47697 6.34495 9.51764C6.37941 9.57369 6.41165 9.6491 6.41165 9.74068C6.41165 9.92823 6.34361 10.0066 6.34361 10.0066C6.34361 10.0066 6.39268 10.0921 6.42495 10.155C6.42809 10.1611 6.43106 10.167 6.43382 10.1726C6.54726 10.4021 6.66391 10.7254 6.66391 11.0491C6.66391 11.3439 6.57949 11.5988 6.43382 11.7801L6.42495 11.7909C6.27955 11.9659 6.07559 12.0694 5.83498 12.0694C5.71543 12.0694 5.60199 12.0457 5.49995 11.9976C5.44472 11.9716 5.39283 11.9384 5.34511 11.8979C5.31047 11.8685 5.27802 11.8352 5.2481 11.798C5.18524 11.7199 5.13577 11.6274 5.09995 11.5219C5.09235 11.4995 5.08536 11.4765 5.07898 11.4529C5.04649 11.3327 5.03007 11.1975 5.03007 11.0491C5.03007 10.8661 5.0539 10.7098 5.08953 10.5802L4.99976 10.6251L4.774 10.7379L4.76661 10.7525L4.75603 10.7736C4.74059 10.804 4.72035 10.8421 4.69178 10.8815C4.64715 10.943 4.58696 11.0011 4.49976 11.0506C4.49229 11.0549 4.48462 11.059 4.47675 11.0631C4.47052 11.0965 4.46083 11.1359 4.44568 11.1702C4.42705 11.2124 4.39655 11.2594 4.34588 11.2953C4.29413 11.3319 4.23235 11.3491 4.16509 11.3491C4.10455 11.3491 4.0551 11.3198 4.0261 11.2991C3.99256 11.2751 3.96057 11.2438 3.93141 11.2093C3.87276 11.1398 3.8153 11.0452 3.7724 10.9346C3.68634 10.7127 3.65323 10.4104 3.8085 10.1072L3.81582 10.0929L3.82609 10.0806C3.89698 9.9956 3.99646 10.0094 4.04276 10.0231C4.09181 10.0377 4.13673 10.0657 4.1684 10.088C4.18187 10.0974 4.1948 10.1072 4.20681 10.1167ZM5.66744 7.92399C5.71953 7.88903 5.7808 7.87177 5.84856 7.87177C5.99026 7.87177 6.08936 7.94533 6.1485 8.05292C6.20393 8.15376 6.22498 8.28407 6.22925 8.41448C6.23785 8.67752 6.05882 9.11774 5.93785 9.27375C5.94558 9.17147 5.95585 8.9 5.93785 8.78281C5.92799 8.71855 5.90156 8.62176 5.84873 8.62176C5.79269 8.62177 5.7685 8.70645 5.7564 8.78281C5.7264 8.97217 5.73894 9.16702 5.7564 9.27375C5.59127 9.05134 5.5229 8.81367 5.49995 8.59003C5.49432 8.53517 5.49143 8.48114 5.49051 8.4284C5.48944 8.36707 5.49194 8.30565 5.49995 8.24711C5.50925 8.17919 5.52596 8.11515 5.55311 8.05965C5.57906 8.0066 5.61594 7.95855 5.66744 7.92399ZM5.84856 8.42823C5.7755 8.42823 5.72309 8.4644 5.68793 8.51036C5.68585 8.48135 5.68451 8.45283 5.68403 8.42503C5.6819 8.30299 5.69657 8.20683 5.72697 8.14471C5.74149 8.11503 5.75807 8.09627 5.7753 8.0847C5.79195 8.07352 5.8147 8.06532 5.84856 8.06532C5.91008 8.06532 5.94888 8.09156 5.97888 8.14615C6.01259 8.20748 6.03191 8.30172 6.0358 8.42081C6.03704 8.45867 6.0367 8.4979 6.03503 8.53788C5.99729 8.48001 5.9365 8.42823 5.84856 8.42823ZM5.84856 11.681C5.7808 11.681 5.71953 11.6638 5.66744 11.6288C5.61594 11.5942 5.57906 11.5462 5.55311 11.4931C5.52596 11.4376 5.50925 11.3736 5.49995 11.3057C5.49194 11.2471 5.48944 11.1857 5.49051 11.1244C5.49143 11.0716 5.49432 11.0176 5.49995 10.9627C5.5229 10.7391 5.59127 10.5014 5.7564 10.279C5.73894 10.3858 5.7264 10.5806 5.7564 10.77C5.7685 10.8463 5.79269 10.931 5.84873 10.931C5.90156 10.931 5.92799 10.8342 5.93785 10.77C5.95585 10.6528 5.94558 10.3813 5.93785 10.279C6.05882 10.435 6.23785 10.8753 6.22925 11.1383C6.22498 11.2687 6.20393 11.399 6.1485 11.4999C6.08936 11.6074 5.99026 11.681 5.84856 11.681ZM5.68793 11.0424C5.72309 11.0884 5.7755 11.1246 5.84856 11.1246C5.9365 11.1246 5.99729 11.0728 6.03503 11.0149C6.0367 11.0549 6.03704 11.0941 6.0358 11.132C6.03191 11.2511 6.01259 11.3453 5.97888 11.4066C5.94888 11.4612 5.91008 11.4875 5.84856 11.4875C5.8147 11.4875 5.79195 11.4793 5.7753 11.4681C5.75807 11.4565 5.74149 11.4377 5.72697 11.4081C5.69657 11.3459 5.6819 11.2498 5.68403 11.1278C5.68451 11.1 5.68585 11.0714 5.68793 11.0424Z" fill="#0085FF"/>
</g>
<defs>
<clipPath id="clip0_620_4666">
<rect width="12" height="12" fill="white" transform="translate(3.69995 4)"/>
</clipPath>
</defs>
</svg>
