<svg width="20" height="20" viewBox="0 0 20 20" fill="none" xmlns="http://www.w3.org/2000/svg">
<circle cx="10" cy="10" r="10" fill="#DDEAF6"/>
<path fill-rule="evenodd" clip-rule="evenodd" d="M7.80858 5.14307C7.71211 5.14307 7.56812 5.16601 7.43883 5.24579C7.29547 5.33426 7.1748 5.49282 7.1748 5.724V12.2244C7.1748 12.4277 7.31014 12.8699 7.78599 13.1506C7.79123 13.4948 7.88991 13.934 8.17526 14.3098C8.5235 14.7685 9.12066 15.165 10.0509 15.1421C10.9758 15.1194 11.5582 14.714 11.8899 14.2613C12.1621 13.8897 12.2457 13.4653 12.2382 13.1341C12.3274 13.0713 12.4247 12.9896 12.5121 12.8921C12.6513 12.7367 12.7908 12.4464 12.7908 12.2375V5.71667L12.7904 5.70935C12.7842 5.59897 12.7369 5.45751 12.6237 5.34156C12.5037 5.21853 12.3284 5.14307 12.1042 5.14307H7.80858ZM8.54799 6.49857C8.39242 6.49857 8.26631 6.62468 8.26631 6.78024V9.31521C8.26631 9.47077 8.39242 9.59687 8.54799 9.59687H11.5056C11.6612 9.59687 11.7873 9.47077 11.7873 9.31521V6.78024C11.7873 6.62468 11.6612 6.49857 11.5056 6.49857H8.54799ZM11.5408 12.8712C11.5408 13.7073 10.863 14.3852 10.0268 14.3852C9.19063 14.3852 8.51278 13.7073 8.51278 12.8712C8.51278 12.0351 9.19063 11.3573 10.0268 11.3573C10.863 11.3573 11.5408 12.0351 11.5408 12.8712ZM10.819 11.2164C11.0427 11.2164 11.2239 11.0352 11.2239 10.8115C11.2239 10.5879 11.0427 10.4067 10.819 10.4067C10.5954 10.4067 10.4141 10.5879 10.4141 10.8115C10.4141 11.0352 10.5954 11.2164 10.819 11.2164Z" fill="#0085FF"/>
</svg>
