<svg width="20" height="20" viewBox="0 0 20 20" fill="none" xmlns="http://www.w3.org/2000/svg">
<circle cx="10" cy="10" r="10" fill="#DDEAF6"/>
<path fill-rule="evenodd" clip-rule="evenodd" d="M7.32153 5.38058C7.32153 5.09138 7.55598 4.85693 7.84518 4.85693H12.3384C12.6276 4.85693 12.8621 5.09138 12.8621 5.38058V7.67788H11.8211C11.6828 7.12512 11.2128 6.22518 10.1087 6.22518C9.00453 6.22518 8.52545 7.12568 8.38158 7.67788H7.32153L7.32153 5.38058ZM11.7905 8.18464H12.8621V11.3941H11.6809C11.4386 11.3941 11.2591 11.5771 11.2194 11.7848C11.1754 12.0147 11.0735 12.2915 10.894 12.5054C10.7211 12.7115 10.4742 12.8637 10.1087 12.8637C9.74324 12.8637 9.49633 12.7115 9.32339 12.5054C9.14389 12.2915 9.04195 12.0147 8.998 11.7848C8.95827 11.5771 8.77883 11.3941 8.53651 11.3941H7.32153V8.18464H8.41204C8.64385 8.18464 8.81918 8.01631 8.86828 7.82007C8.98588 7.35007 9.34615 6.73193 10.1087 6.73193C10.8684 6.73193 11.2204 7.3459 11.3331 7.81533C11.3806 8.01349 11.5566 8.18464 11.7905 8.18464ZM7.32153 11.9009L7.32153 14.3333C7.32153 14.6225 7.55598 14.8569 7.84518 14.8569H12.3384C12.6276 14.8569 12.8621 14.6225 12.8621 14.3333V11.9009H11.713C11.6561 12.1838 11.5273 12.539 11.2822 12.8311C11.0245 13.1383 10.6409 13.3704 10.1087 13.3704C9.57647 13.3704 9.19293 13.1383 8.93518 12.8311C8.69004 12.539 8.56128 12.1838 8.50435 11.9009H7.32153Z" fill="#0085FF"/>
</svg>
