<svg width="20" height="20" viewBox="0 0 20 20" fill="none" xmlns="http://www.w3.org/2000/svg">
<circle cx="10" cy="10" r="10" fill="#DDEAF6"/>
<path fill-rule="evenodd" clip-rule="evenodd" d="M8.54379 5.19419C9.04149 4.91084 9.58051 4.83896 9.9359 4.86049L10.098 4.87032L10.3517 5.37777C10.911 5.37666 11.532 5.57143 12.034 5.93919C12.6019 6.35534 13.0331 7.00631 13.0331 7.86168C13.0331 8.68861 12.7259 9.26793 12.3975 9.64934C12.2348 9.83829 12.0685 9.97692 11.9356 10.0734C11.8411 10.1419 11.7352 10.2068 11.7002 10.2277C11.6873 11.2154 11.6595 13.133 11.6443 13.3761C11.6238 13.7046 11.4498 13.935 11.3329 14.0285L11.3269 14.0333L11.3206 14.0378C11.1026 14.1935 10.5774 14.5567 10.2609 14.7307C9.84597 14.9589 9.42438 14.8272 9.25258 14.7277L9.24703 14.7245L9.24163 14.721C8.91345 14.5105 8.16216 14.017 7.84826 13.7659C7.4682 13.4618 7.36743 13.0379 7.36743 12.8332V7.52993C7.36418 7.45092 7.36244 7.32742 7.36715 7.19897C7.37172 7.07445 7.3829 6.92468 7.41178 6.80549C7.58028 5.98772 8.03685 5.48279 8.54379 5.19419ZM12.1701 7.93671C12.1701 8.95211 11.347 9.77525 10.3316 9.77525C9.31621 9.77525 8.49307 8.95211 8.49307 7.93671C8.49307 6.92132 9.31621 6.09817 10.3316 6.09817C11.347 6.09817 12.1701 6.92132 12.1701 7.93671ZM8.9058 11.051C9.21664 11.051 9.46862 10.799 9.46862 10.4882C9.46862 10.1773 9.21664 9.92534 8.9058 9.92534C8.59496 9.92534 8.34298 10.1773 8.34298 10.4882C8.34298 10.799 8.59496 11.051 8.9058 11.051ZM8.23042 11.6138C8.23042 11.4066 8.39841 11.2386 8.60563 11.2386H9.16845C9.37567 11.2386 9.54366 11.4066 9.54366 11.6138C9.54366 11.821 9.37567 11.989 9.16845 11.989H8.60563C8.39841 11.989 8.23042 11.821 8.23042 11.6138ZM8.60563 12.1016C8.39841 12.1016 8.23042 12.2696 8.23042 12.4768C8.23042 12.684 8.39841 12.852 8.60563 12.852H9.16845C9.37567 12.852 9.54366 12.684 9.54366 12.4768C9.54366 12.2696 9.37567 12.1016 9.16845 12.1016H8.60563Z" fill="#0085FF"/>
</svg>
