<svg width="20" height="20" viewBox="0 0 20 20" fill="none" xmlns="http://www.w3.org/2000/svg">
<circle cx="10" cy="10" r="10" fill="#DDEAF6"/>
<g clip-path="url(#clip0_243_3985)">
<path fill-rule="evenodd" clip-rule="evenodd" d="M5.34302 5.93136C5.34302 5.77535 5.46949 5.64887 5.62551 5.64887H7.56762C7.72363 5.64887 7.8501 5.77535 7.8501 5.93136V15.2888C7.8501 15.4448 7.72363 15.5713 7.56762 15.5713H5.62551C5.46949 15.5713 5.34302 15.4448 5.34302 15.2888V5.93136ZM7.63824 6.51399V7.04365H5.55488V6.51399H7.63824ZM7.28513 7.76754C7.28513 8.13808 6.98475 8.43845 6.61422 8.43845C6.24368 8.43845 5.94331 8.13808 5.94331 7.76754C5.94331 7.39701 6.24368 7.09663 6.61422 7.09663C6.98475 7.09663 7.28513 7.39701 7.28513 7.76754ZM5.55488 13.9117H7.63824V14.4413H5.55488V13.9117Z" fill="#0085FF"/>
<path fill-rule="evenodd" clip-rule="evenodd" d="M8.20322 5.93136C8.20322 5.77535 8.32969 5.64887 8.4857 5.64887H10.4278C10.5838 5.64887 10.7103 5.77535 10.7103 5.93136V15.2888C10.7103 15.4448 10.5838 15.5713 10.4278 15.5713H8.4857C8.32969 15.5713 8.20322 15.4448 8.20322 15.2888V5.93136ZM8.43274 7.04365V6.51399H8.73288H10.1806H10.4984V7.04365H10.1806H8.73288H8.43274ZM10.1453 7.76754C10.1453 8.13807 9.84495 8.43845 9.47441 8.43845C9.10388 8.43845 8.8035 8.13807 8.8035 7.76754C8.8035 7.39701 9.10388 7.09663 9.47441 7.09663C9.84495 7.09663 10.1453 7.39701 10.1453 7.76754ZM10.4984 13.9117H8.43274V14.4413H10.4984V13.9117Z" fill="#0085FF"/>
<path fill-rule="evenodd" clip-rule="evenodd" d="M10.916 6.72437C10.8549 6.5808 10.9218 6.41492 11.0654 6.35387L12.8526 5.59389C12.9962 5.53284 13.1621 5.59974 13.2231 5.74331L16.8848 14.3546C16.9459 14.4981 16.879 14.664 16.7354 14.7251L14.9482 15.485C14.8046 15.5461 14.6387 15.4792 14.5777 15.3356L10.916 6.72437ZM11.5556 7.69338L11.3481 7.20608L11.6429 7.08048L12.9749 6.51316L13.2549 6.39392L13.4624 6.88123L13.1822 7.00059L11.8502 7.56791L11.5556 7.69338ZM13.4646 7.9441C13.4646 8.31463 13.1642 8.61501 12.7937 8.61501C12.4231 8.61501 12.1227 8.31463 12.1227 7.9441C12.1227 7.57356 12.4231 7.27319 12.7937 7.27319C13.1642 7.27319 13.4646 7.57356 13.4646 7.9441ZM14.4649 14.5807L14.2651 14.0901L14.5707 13.9656L15.9116 13.4193L16.1719 13.3133L16.3717 13.8038L16.1189 13.9068L14.778 14.4531L14.4649 14.5807Z" fill="#0085FF"/>
</g>
<defs>
<clipPath id="clip0_243_3985">
<rect width="12" height="12" fill="white" transform="translate(5.14282 4.57129)"/>
</clipPath>
</defs>
</svg>
