<svg width="20" height="20" viewBox="0 0 20 20" fill="none" xmlns="http://www.w3.org/2000/svg">
<circle cx="10" cy="10" r="10" fill="#DDEAF6"/>
<path fill-rule="evenodd" clip-rule="evenodd" d="M7.75432 4.92185C7.78078 4.88134 7.8258 4.85693 7.87408 4.85693H8.89552C8.93818 4.85693 8.97862 4.87602 9.00582 4.90899L9.39238 5.37758H12.1116C12.4924 5.37758 12.6677 5.67647 12.7097 5.82424L12.7205 5.86196L12.7201 5.90118L12.718 6.09093L12.7031 7.47812L12.7013 7.65765L12.6489 13.3324C12.6486 13.3955 12.6485 13.4492 12.6485 13.4925C12.6485 13.961 12.5165 14.2972 12.3207 14.5226C12.1289 14.7434 11.8891 14.8418 11.7027 14.8561L11.6924 14.8569H7.90598C7.49804 14.8569 7.23156 14.6191 7.07702 14.3639C6.92706 14.1162 6.86498 13.8297 6.85083 13.638L6.8501 13.6281V5.89823C6.8501 5.67822 6.97732 5.5357 7.10818 5.46218C7.22634 5.3958 7.35553 5.37758 7.44067 5.37758H7.45669L7.75432 4.92185ZM12.8076 7.47812H12.9885C13.0676 7.47812 13.1317 7.41381 13.1317 7.33449V7.20882C13.1317 6.76712 12.97 6.42081 12.8076 6.20051V7.47812ZM12.8076 7.65765H12.9885C13.0676 7.65765 13.1317 7.72196 13.1317 7.80128V12.8462C13.1317 12.8871 13.1224 12.9275 13.1045 12.9643C13.0564 13.063 12.9435 13.206 12.7677 13.289L12.8076 7.65765ZM9.74929 6.41887C9.93709 6.41887 10.0893 6.57159 10.0893 6.75999V8.26806C10.0893 8.45646 9.93709 8.60918 9.74929 8.60918C9.5615 8.60918 9.40926 8.45646 9.40926 8.26806V6.75999C9.40926 6.57159 9.5615 6.41887 9.74929 6.41887ZM9.76719 13.9593C10.8742 13.9593 11.7716 13.059 11.7716 11.9485C11.7716 10.838 10.8742 9.93772 9.76719 9.93772C8.6602 9.93772 7.76281 10.838 7.76281 11.9485C7.76281 13.059 8.6602 13.9593 9.76719 13.9593Z" fill="#0085FF"/>
</svg>
