<svg width="20" height="20" viewBox="0 0 20 20" fill="none" xmlns="http://www.w3.org/2000/svg">
<circle cx="10" cy="10" r="10" fill="#DDEAF6"/>
<path fill-rule="evenodd" clip-rule="evenodd" d="M7.3501 5.14163C7.3501 4.9844 7.47756 4.85693 7.6348 4.85693H12.3679C12.5251 4.85693 12.6526 4.9844 12.6526 5.14163V14.5722C12.6526 14.7295 12.5251 14.8569 12.3679 14.8569H7.6348C7.47756 14.8569 7.3501 14.7295 7.3501 14.5722V5.14163ZM8.27536 7.84626C8.27536 8.00349 8.40283 8.13095 8.56006 8.13095H11.5494C11.7066 8.13095 11.8341 8.00349 11.8341 7.84626V5.39074H8.27536V7.84626ZM11.7985 11.3694C11.7985 12.3324 11.0178 13.1132 10.0547 13.1132C9.09167 13.1132 8.31095 12.3324 8.31095 11.3694C8.31095 10.4063 9.09167 9.62562 10.0547 9.62562C11.0178 9.62562 11.7985 10.4063 11.7985 11.3694ZM8.20419 13.8961C8.10592 13.8961 8.02625 13.9757 8.02625 14.074C8.02625 14.1723 8.10592 14.252 8.20419 14.252H8.738C8.83627 14.252 8.91593 14.1723 8.91593 14.074C8.91593 13.9757 8.83627 13.8961 8.738 13.8961H8.20419ZM9.5565 14.074C9.5565 14.1723 9.47684 14.252 9.37857 14.252C9.2803 14.252 9.20063 14.1723 9.20063 14.074C9.20063 13.9757 9.2803 13.8961 9.37857 13.8961C9.47684 13.8961 9.5565 13.9757 9.5565 14.074ZM10.0191 14.252C10.1174 14.252 10.1971 14.1723 10.1971 14.074C10.1971 13.9757 10.1174 13.8961 10.0191 13.8961C9.92087 13.8961 9.8412 13.9757 9.8412 14.074C9.8412 14.1723 9.92087 14.252 10.0191 14.252ZM10.8376 14.074C10.8376 14.1723 10.758 14.252 10.6597 14.252C10.5614 14.252 10.4818 14.1723 10.4818 14.074C10.4818 13.9757 10.5614 13.8961 10.6597 13.8961C10.758 13.8961 10.8376 13.9757 10.8376 14.074ZM11.3003 13.8961C11.202 13.8961 11.1223 13.9757 11.1223 14.074C11.1223 14.1723 11.202 14.252 11.3003 14.252H11.8341C11.9324 14.252 12.012 14.1723 12.012 14.074C12.012 13.9757 11.9324 13.8961 11.8341 13.8961H11.3003Z" fill="#0085FF"/>
</svg>
